<svg width="70" height="70" viewBox="0 0 70 70" fill="none">
<path d="M35 40.25C37.8995 40.25 40.25 37.8995 40.25 35C40.25 32.1005 37.8995 29.75 35 29.75C32.1005 29.75 29.75 32.1005 29.75 35C29.75 37.8995 32.1005 40.25 35 40.25Z" stroke="white" stroke-width="5" stroke-linecap="round" stroke-linejoin="round"/>
<path d="M47.95 40.25C47.717 40.7778 47.6476 41.3633 47.7505 41.931C47.8534 42.4987 48.1241 43.0226 48.5275 43.435L48.6325 43.54C48.9579 43.865 49.2161 44.2511 49.3922 44.676C49.5683 45.1008 49.659 45.5563 49.659 46.0162C49.659 46.4762 49.5683 46.9316 49.3922 47.3565C49.2161 47.7814 48.9579 48.1674 48.6325 48.4925C48.3074 48.8179 47.9214 49.0761 47.4965 49.2522C47.0716 49.4283 46.6162 49.519 46.1562 49.519C45.6963 49.519 45.2409 49.4283 44.816 49.2522C44.3911 49.0761 44.0051 48.8179 43.68 48.4925L43.575 48.3875C43.1626 47.9841 42.6387 47.7134 42.071 47.6105C41.5033 47.5076 40.9178 47.577 40.39 47.81C39.8724 48.0318 39.431 48.4002 39.12 48.8697C38.8091 49.3392 38.6422 49.8894 38.64 50.4525V50.75C38.64 51.6783 38.2713 52.5685 37.6149 53.2249C36.9585 53.8812 36.0683 54.25 35.14 54.25C34.2117 54.25 33.3215 53.8812 32.6651 53.2249C32.0087 52.5685 31.64 51.6783 31.64 50.75V50.5925C31.6265 50.0133 31.439 49.4515 31.1019 48.9802C30.7648 48.509 30.2938 48.15 29.75 47.95C29.2222 47.717 28.6367 47.6476 28.069 47.7505C27.5013 47.8534 26.9774 48.1241 26.565 48.5275L26.46 48.6325C26.1349 48.9579 25.7489 49.2161 25.324 49.3922C24.8991 49.5683 24.4437 49.659 23.9837 49.659C23.5238 49.659 23.0684 49.5683 22.6435 49.3922C22.2186 49.2161 21.8326 48.9579 21.5075 48.6325C21.1821 48.3074 20.9239 47.9214 20.7478 47.4965C20.5717 47.0716 20.481 46.6162 20.481 46.1562C20.481 45.6963 20.5717 45.2408 20.7478 44.816C20.9239 44.3911 21.1821 44.005 21.5075 43.68L21.6125 43.575C22.0159 43.1626 22.2866 42.6387 22.3895 42.071C22.4924 41.5033 22.423 40.9178 22.19 40.39C21.9682 39.8724 21.5998 39.431 21.1303 39.12C20.6608 38.8091 20.1106 38.6422 19.5475 38.64H19.25C18.3217 38.64 17.4315 38.2712 16.7751 37.6149C16.1187 36.9585 15.75 36.0683 15.75 35.14C15.75 34.2117 16.1187 33.3215 16.7751 32.6651C17.4315 32.0087 18.3217 31.64 19.25 31.64H19.4075C19.9867 31.6264 20.5485 31.439 21.0198 31.1019C21.491 30.7648 21.85 30.2938 22.05 29.75C22.283 29.2222 22.3524 28.6367 22.2495 28.069C22.1466 27.5013 21.8759 26.9774 21.4725 26.565L21.3675 26.46C21.0421 26.1349 20.7839 25.7489 20.6078 25.324C20.4317 24.8991 20.341 24.4437 20.341 23.9837C20.341 23.5238 20.4317 23.0684 20.6078 22.6435C20.7839 22.2186 21.0421 21.8326 21.3675 21.5075C21.6926 21.1821 22.0786 20.9239 22.5035 20.7478C22.9284 20.5717 23.3838 20.481 23.8438 20.481C24.3037 20.481 24.7591 20.5717 25.184 20.7478C25.6089 20.9239 25.9949 21.1821 26.32 21.5075L26.425 21.6125C26.8374 22.0159 27.3613 22.2866 27.929 22.3895C28.4967 22.4924 29.0822 22.4229 29.61 22.19H29.75C30.2676 21.9682 30.709 21.5998 31.02 21.1303C31.3309 20.6608 31.4978 20.1106 31.5 19.5475V19.25C31.5 18.3217 31.8687 17.4315 32.5251 16.7751C33.1815 16.1187 34.0717 15.75 35 15.75C35.9283 15.75 36.8185 16.1187 37.4749 16.7751C38.1313 17.4315 38.5 18.3217 38.5 19.25V19.4075C38.5022 19.9706 38.6691 20.5208 38.98 20.9903C39.291 21.4598 39.7324 21.8282 40.25 22.05C40.7778 22.283 41.3633 22.3524 41.931 22.2495C42.4987 22.1466 43.0226 21.8759 43.435 21.4725L43.54 21.3675C43.8651 21.0421 44.2511 20.7839 44.676 20.6078C45.1009 20.4317 45.5563 20.341 46.0163 20.341C46.4762 20.341 46.9316 20.4317 47.3565 20.6078C47.7814 20.7839 48.1674 21.0421 48.4925 21.3675C48.8179 21.6926 49.0761 22.0786 49.2522 22.5035C49.4283 22.9284 49.519 23.3838 49.519 23.8437C49.519 24.3037 49.4283 24.7591 49.2522 25.184C49.0761 25.6089 48.8179 25.9949 48.4925 26.32L48.3875 26.425C47.9841 26.8374 47.7134 27.3613 47.6105 27.929C47.5076 28.4967 47.577 29.0822 47.81 29.61V29.75C48.0318 30.2676 48.4002 30.709 48.8697 31.02C49.3392 31.3309 49.8894 31.4978 50.4525 31.5H50.75C51.6783 31.5 52.5685 31.8687 53.2249 32.5251C53.8813 33.1815 54.25 34.0717 54.25 35C54.25 35.9283 53.8813 36.8185 53.2249 37.4749C52.5685 38.1312 51.6783 38.5 50.75 38.5H50.5925C50.0294 38.5022 49.4792 38.6691 49.0097 38.98C48.5402 39.291 48.1718 39.7324 47.95 40.25V40.25Z" stroke="white" stroke-width="5" stroke-linecap="round" stroke-linejoin="round"/>
</svg>
